<mxfile host="app.diagrams.net" modified="2023-12-07T05:17:30.766Z" agent="Mozilla/5.0 (Macintosh; Intel Mac OS X 10_15_7) AppleWebKit/537.36 (KHTML, like Gecko) Chrome/119.0.0.0 Safari/537.36" version="22.1.7" etag="qGMqepZgF9VueK5kJHFm" type="github">
  <diagram name="Halaman-1" id="7-eIo7aDkqdpStAYn9qP">
    <mxGraphModel>
      <root>
        <mxCell id="0" />
        <mxCell id="1" parent="0" />
      </root>
    </mxGraphModel>
  </diagram>
</mxfile>
